<svg id="paytm-logo" xmlns="http://www.w3.org/2000/svg" width="167.616" height="52.538" viewBox="0 0 167.616 52.538">
  <g id="Group_18931" data-name="Group 18931" transform="translate(0)">
    <g id="Group_18930" data-name="Group 18930">
      <g id="Group_18929" data-name="Group 18929">
        <g id="Group_18928" data-name="Group 18928">
          <g id="Group_18927" data-name="Group 18927">
            <path id="Path_17722" data-name="Path 17722" d="M276.016,53.936a11.216,11.216,0,0,0-10.585-7.508h-.1a11.179,11.179,0,0,0-8.086,3.448,11.177,11.177,0,0,0-8.085-3.448h-.1a11.164,11.164,0,0,0-7.312,2.716v-.856a1.655,1.655,0,0,0-1.645-1.536h-7.5a1.661,1.661,0,0,0-1.658,1.662V89.162a1.66,1.66,0,0,0,1.658,1.661h7.5a1.654,1.654,0,0,0,1.636-1.436l-.005-29.248c0-.1.005-.2.014-.295a2.733,2.733,0,0,1,2.587-2.512h1.384a2.9,2.9,0,0,1,1.583.612,2.765,2.765,0,0,1,1.017,2.195l.029,29.107A1.661,1.661,0,0,0,250,90.908h7.5a1.656,1.656,0,0,0,1.65-1.58L259.149,60.1a2.742,2.742,0,0,1,1.223-2.344,2.955,2.955,0,0,1,1.378-.463h1.385a2.743,2.743,0,0,1,2.6,2.807l.028,29.068a1.661,1.661,0,0,0,1.66,1.661h7.5a1.66,1.66,0,0,0,1.658-1.661V57.905A10.487,10.487,0,0,0,276.016,53.936Z" transform="translate(-108.967 -38.601)" fill="#00baf2"/>
            <path id="Path_17723" data-name="Path 17723" d="M216.68,44.255h-4.291V37.333h0l0-.013a1.514,1.514,0,0,0-1.515-1.517,1.465,1.465,0,0,0-.285.031c-4.76,1.3-3.8,7.862-12.49,8.421h-.846a1.694,1.694,0,0,0-.362.042h0a1.652,1.652,0,0,0-1.3,1.608v7.469a1.657,1.657,0,0,0,1.659,1.655h4.528l0,31.676a1.638,1.638,0,0,0,1.639,1.635h7.419a1.638,1.638,0,0,0,1.639-1.635l0-31.676h4.2a1.656,1.656,0,0,0,1.658-1.655V45.906A1.655,1.655,0,0,0,216.68,44.255Z" transform="translate(-100.175 -35.803)" fill="#00baf2"/>
            <path id="Path_17724" data-name="Path 17724" d="M179.3,47h-7.5a1.658,1.658,0,0,0-1.657,1.658V64.172a1.757,1.757,0,0,1-1.755,1.73h-3.144a1.758,1.758,0,0,1-1.758-1.759l-.032-15.489A1.659,1.659,0,0,0,161.795,47h-7.5a1.659,1.659,0,0,0-1.659,1.658v17A10.647,10.647,0,0,0,163.7,76.722s4.849,0,5,.029a1.747,1.747,0,0,1,.024,3.47c-.041.008-.08.016-.126.023l-10.974.039a1.66,1.66,0,0,0-1.658,1.661v7.5a1.659,1.659,0,0,0,1.658,1.658h12.27A10.647,10.647,0,0,0,180.962,80.04V48.655A1.66,1.66,0,0,0,179.3,47Z" transform="translate(-89.641 -38.738)" fill="#002970"/>
            <path id="Path_17725" data-name="Path 17725" d="M87.153,47h-16.4a1.626,1.626,0,0,0-1.627,1.627v7.351a.134.134,0,0,0,0,.027c0,.05,0,.084,0,.12V89.391a1.617,1.617,0,0,0,1.517,1.664h7.644a1.659,1.659,0,0,0,1.66-1.661l.029-11.4h7.177a9.737,9.737,0,0,0,10.2-10.2V57.208C97.349,51.177,93.162,47,87.153,47Zm-.658,13.75v4.629a1.758,1.758,0,0,1-1.758,1.759l-4.761.006V57.858h4.761a1.758,1.758,0,0,1,1.758,1.758Z" transform="translate(-69.127 -38.738)" fill="#002970"/>
            <path id="Path_17726" data-name="Path 17726" d="M126.266,47.053h-10.41a1.617,1.617,0,0,0-1.668,1.557v2.917l.007.059a.23.23,0,0,1-.007.039v4.019a1.712,1.712,0,0,0,1.768,1.65l9.913,0a1.721,1.721,0,0,1,1.492,1.586v.968a1.664,1.664,0,0,1-1.452,1.542H121c-6.53,0-11.184,4.338-11.184,10.427v8.729c0,6.055,4,10.362,10.483,10.362H133.91a4.281,4.281,0,0,0,4.421-4.124V58.316C138.331,51.411,134.771,47.053,126.266,47.053Zm1.194,31.32v1.172a1.5,1.5,0,0,1-.03.276,1.782,1.782,0,0,1-.068.243v0a1.757,1.757,0,0,1-1.67,1.129H122.57a1.713,1.713,0,0,1-1.768-1.65V78.129l0-.052,0-3.767V73.123a1.713,1.713,0,0,1,1.768-1.642h3.122a1.713,1.713,0,0,1,1.768,1.649Z" transform="translate(-79.124 -38.752)" fill="#002970"/>
          </g>
        </g>
      </g>
    </g>
  </g>
</svg>
